<?xml version="1.0" encoding="UTF-8" standalone="no"?>
<svg
   xmlns:dc="http://purl.org/dc/elements/1.1/"
   xmlns:cc="http://creativecommons.org/ns#"
   xmlns:rdf="http://www.w3.org/1999/02/22-rdf-syntax-ns#"
   xmlns:svg="http://www.w3.org/2000/svg"
   xmlns="http://www.w3.org/2000/svg"
   xmlns:sodipodi="http://sodipodi.sourceforge.net/DTD/sodipodi-0.dtd"
   xmlns:inkscape="http://www.inkscape.org/namespaces/inkscape"
   overflow="scroll"
   viewBox="7.59181 13.580451 35.672661 36.00052"
   width="1837.2849"
   height="1377.9612"
   version="1.1"
   id="svg30"
   sodipodi:docname="gmail.svg"
   style="overflow:scroll"
   inkscape:version="0.92.5 (2060ec1f9f, 2020-04-08)">
  <metadata
     id="metadata36">
    <rdf:RDF>
      <cc:Work
         rdf:about="">
        <dc:format>image/svg+xml</dc:format>
        <dc:type
           rdf:resource="http://purl.org/dc/dcmitype/StillImage" />
      </cc:Work>
    </rdf:RDF>
  </metadata>
  <defs
     id="defs34" />
  <sodipodi:namedview
     pagecolor="#ffffff"
     bordercolor="#666666"
     borderopacity="1"
     objecttolerance="10"
     gridtolerance="10"
     guidetolerance="10"
     inkscape:pageopacity="0"
     inkscape:pageshadow="2"
     inkscape:window-width="3696"
     inkscape:window-height="2050"
     id="namedview32"
     showgrid="false"
     inkscape:zoom="0.47884419"
     inkscape:cx="318.79065"
     inkscape:cy="883.08725"
     inkscape:window-x="144"
     inkscape:window-y="54"
     inkscape:window-maximized="1"
     inkscape:current-layer="svg30" />
  <linearGradient
     id="a"
     gradientUnits="userSpaceOnUse"
     x1="14.001"
     x2="32"
     y1="30.743999"
     y2="30.743999"
     gradientTransform="translate(-6.5720397,-0.4190286)">
    <stop
       offset="0"
       stop-color="#c8c8c8"
       id="stop2" />
    <stop
       offset="1"
       stop-color="#cdcdcd"
       id="stop4" />
  </linearGradient>
  <linearGradient
     id="b"
     gradientUnits="userSpaceOnUse"
     x1="28.665001"
     x2="50"
     y1="36.446999"
     y2="36.446999"
     gradientTransform="translate(-6.5720397,-0.4190286)">
    <stop
       offset="0"
       stop-color="#d9d9d9"
       id="stop7" />
    <stop
       offset="1"
       stop-color="#e2e2e2"
       id="stop9" />
  </linearGradient>
  <path
     d="M 46.427977,49.580972 H 4.4279608 a 3,3 0 0 1 -3.0000012,-3 v -30 a 3,3 0 0 1 3.0000012,-3 H 46.427977 a 3,3 0 0 1 3,3 v 30 a 3,3 0 0 1 -3,3 z"
     id="path12"
     inkscape:connector-curvature="0"
     style="fill:#eaeaea" />
  <path
     d="m 7.4279668,49.580972 h -3.000006 a 3,3 0 0 1 -3.0000012,-3 v -30 a 3.0000036,3.0000036 0 1 1 6.0000072,0 z"
     id="path14"
     inkscape:connector-curvature="0"
     style="fill:#d54c3f" />
  <path
     d="m 43.427977,49.580972 h 3 a 3,3 0 0 0 3,-3 v -30 a 3,3 0 1 0 -6,0 z"
     id="path16"
     inkscape:connector-curvature="0"
     style="fill:#b63524" />
  <path
     d="m 48.145977,19.040972 a 3.0005206,3.0005206 0 1 0 -3.436,-4.92 l -19.28,14.037 -0.002,10e-4 -0.002,-10e-4 -19.2800122,-14.037 a 3.0005219,3.0005219 0 0 0 -3.4360044,4.92 l -0.08,-0.059 22.7980166,16.599 m 22.799,-16.599 -22.799,16.599"
     id="path18"
     inkscape:connector-curvature="0"
     style="fill:#de5145" />
  <path
     d="m 46.427977,13.580972 c -0.639,0 -1.232,0.2 -1.718,0.54 l -19.28,14.037 -0.002,10e-4 -0.002,-10e-4 -19.2800122,-14.037 a 2.988,2.988 0 0 0 -1.718004,-0.54 z"
     id="path20"
     inkscape:connector-curvature="0"
     style="fill:#efefef" />
  <path
     d="m 7.4289668,23.768972 -5.0560065,-5.008 -0.002,0.004 c 0.106,0.1 0.2190001,0.192 0.3390001,0.276 l -0.08,-0.059 4.8000064,3.495 -10e-4,1.328"
     id="path22"
     inkscape:connector-curvature="0"
     style="fill:#c64132" />
  <path
     d="m 22.095977,38.171972 -14.6680102,11.409 0.001,-25.937 14.6640102,14.524"
     id="path24"
     inkscape:connector-curvature="0"
     style="fill:#e3e3e3" />
  <path
     d="m 22.095977,38.171972 3.332,-2.591 -17.9990102,-13.104 v 1.167 l 14.6640102,14.524 z"
     id="path26"
     inkscape:connector-curvature="0"
     style="fill:url(#a)" />
  <path
     d="m 33.488977,49.580972 h 9.939 v -27.105 l -18,13.105 -3.335,2.587 z"
     id="path28"
     inkscape:connector-curvature="0"
     style="fill:url(#b)" />
</svg>
