<?xml version="1.0" encoding="UTF-8"?>
<!DOCTYPE svg PUBLIC "-//W3C//DTD SVG 1.1//EN" "http://www.w3.org/Graphics/SVG/1.1/DTD/svg11.dtd">
<svg width="200mm" height="122mm" viewBox="0 0 20000 12200" version="1.1" xmlns="http://www.w3.org/2000/svg" xmlns:xlink="http://www.w3.org/1999/xlink" stroke-width="28.222" stroke-linejoin="round" xml:space="preserve">
 <path fill="rgb(255,255,255)" stroke="none" d="M 10023,12219 L 0,12219 0,0 20045,0 20045,12219 10023,12219 Z"/>
 <path fill="none" stroke="rgb(179,179,179)" stroke-linejoin="round" d="M 10652,10347 L 2032,10347 2032,443 19272,443 19272,10347 10652,10347 Z"/>
 <path fill="none" stroke="rgb(179,179,179)" stroke-linejoin="round" d="M 19272,10346 L 2032,10346"/>
 <path fill="none" stroke="rgb(179,179,179)" stroke-linejoin="round" d="M 19272,9355 L 2032,9355"/>
 <path fill="none" stroke="rgb(179,179,179)" stroke-linejoin="round" d="M 19272,8365 L 2032,8365"/>
 <path fill="none" stroke="rgb(179,179,179)" stroke-linejoin="round" d="M 19272,7374 L 2032,7374"/>
 <path fill="none" stroke="rgb(179,179,179)" stroke-linejoin="round" d="M 19272,6384 L 2032,6384"/>
 <path fill="none" stroke="rgb(179,179,179)" stroke-linejoin="round" d="M 19272,5394 L 2032,5394"/>
 <path fill="none" stroke="rgb(179,179,179)" stroke-linejoin="round" d="M 19272,4403 L 2032,4403"/>
 <path fill="none" stroke="rgb(179,179,179)" stroke-linejoin="round" d="M 19272,3413 L 2032,3413"/>
 <path fill="none" stroke="rgb(179,179,179)" stroke-linejoin="round" d="M 19272,2422 L 2032,2422"/>
 <path fill="none" stroke="rgb(179,179,179)" stroke-linejoin="round" d="M 19272,1432 L 2032,1432"/>
 <path fill="none" stroke="rgb(179,179,179)" stroke-linejoin="round" d="M 19272,441 L 2032,441"/>
 <path fill="none" stroke="rgb(179,179,179)" stroke-linejoin="round" d="M 2032,10496 L 2032,10346"/>
 <path fill="none" stroke="rgb(179,179,179)" stroke-linejoin="round" d="M 2032,10496 L 2032,10346"/>
 <path fill="none" stroke="rgb(179,179,179)" stroke-linejoin="round" d="M 4187,10496 L 4187,10346"/>
 <path fill="none" stroke="rgb(179,179,179)" stroke-linejoin="round" d="M 4187,10496 L 4187,10346"/>
 <path fill="none" stroke="rgb(179,179,179)" stroke-linejoin="round" d="M 6342,10496 L 6342,10346"/>
 <path fill="none" stroke="rgb(179,179,179)" stroke-linejoin="round" d="M 6342,10496 L 6342,10346"/>
 <path fill="none" stroke="rgb(179,179,179)" stroke-linejoin="round" d="M 8497,10496 L 8497,10346"/>
 <path fill="none" stroke="rgb(179,179,179)" stroke-linejoin="round" d="M 8497,10496 L 8497,10346"/>
 <path fill="none" stroke="rgb(179,179,179)" stroke-linejoin="round" d="M 10651,10496 L 10651,10346"/>
 <path fill="none" stroke="rgb(179,179,179)" stroke-linejoin="round" d="M 10651,10496 L 10651,10346"/>
 <path fill="none" stroke="rgb(179,179,179)" stroke-linejoin="round" d="M 12806,10496 L 12806,10346"/>
 <path fill="none" stroke="rgb(179,179,179)" stroke-linejoin="round" d="M 12806,10496 L 12806,10346"/>
 <path fill="none" stroke="rgb(179,179,179)" stroke-linejoin="round" d="M 14961,10496 L 14961,10346"/>
 <path fill="none" stroke="rgb(179,179,179)" stroke-linejoin="round" d="M 14961,10496 L 14961,10346"/>
 <path fill="none" stroke="rgb(179,179,179)" stroke-linejoin="round" d="M 17116,10496 L 17116,10346"/>
 <path fill="none" stroke="rgb(179,179,179)" stroke-linejoin="round" d="M 17116,10496 L 17116,10346"/>
 <path fill="none" stroke="rgb(179,179,179)" stroke-linejoin="round" d="M 19272,10496 L 19272,10346"/>
 <path fill="none" stroke="rgb(179,179,179)" stroke-linejoin="round" d="M 19272,10496 L 19272,10346"/>
 <path fill="none" stroke="rgb(179,179,179)" stroke-linejoin="round" d="M 2032,10346 L 19272,10346"/>
 <path fill="none" stroke="rgb(179,179,179)" stroke-linejoin="round" d="M 1882,10346 L 2032,10346"/>
 <path fill="none" stroke="rgb(179,179,179)" stroke-linejoin="round" d="M 1882,10346 L 2032,10346"/>
 <path fill="none" stroke="rgb(179,179,179)" stroke-linejoin="round" d="M 1882,9355 L 2032,9355"/>
 <path fill="none" stroke="rgb(179,179,179)" stroke-linejoin="round" d="M 1882,9355 L 2032,9355"/>
 <path fill="none" stroke="rgb(179,179,179)" stroke-linejoin="round" d="M 1882,8365 L 2032,8365"/>
 <path fill="none" stroke="rgb(179,179,179)" stroke-linejoin="round" d="M 1882,8365 L 2032,8365"/>
 <path fill="none" stroke="rgb(179,179,179)" stroke-linejoin="round" d="M 1882,7374 L 2032,7374"/>
 <path fill="none" stroke="rgb(179,179,179)" stroke-linejoin="round" d="M 1882,7374 L 2032,7374"/>
 <path fill="none" stroke="rgb(179,179,179)" stroke-linejoin="round" d="M 1882,6383 L 2032,6383"/>
 <path fill="none" stroke="rgb(179,179,179)" stroke-linejoin="round" d="M 1882,6383 L 2032,6383"/>
 <path fill="none" stroke="rgb(179,179,179)" stroke-linejoin="round" d="M 1882,5394 L 2032,5394"/>
 <path fill="none" stroke="rgb(179,179,179)" stroke-linejoin="round" d="M 1882,5394 L 2032,5394"/>
 <path fill="none" stroke="rgb(179,179,179)" stroke-linejoin="round" d="M 1882,4403 L 2032,4403"/>
 <path fill="none" stroke="rgb(179,179,179)" stroke-linejoin="round" d="M 1882,4403 L 2032,4403"/>
 <path fill="none" stroke="rgb(179,179,179)" stroke-linejoin="round" d="M 1882,3413 L 2032,3413"/>
 <path fill="none" stroke="rgb(179,179,179)" stroke-linejoin="round" d="M 1882,3413 L 2032,3413"/>
 <path fill="none" stroke="rgb(179,179,179)" stroke-linejoin="round" d="M 1882,2422 L 2032,2422"/>
 <path fill="none" stroke="rgb(179,179,179)" stroke-linejoin="round" d="M 1882,2422 L 2032,2422"/>
 <path fill="none" stroke="rgb(179,179,179)" stroke-linejoin="round" d="M 1882,1432 L 2032,1432"/>
 <path fill="none" stroke="rgb(179,179,179)" stroke-linejoin="round" d="M 1882,1432 L 2032,1432"/>
 <path fill="none" stroke="rgb(179,179,179)" stroke-linejoin="round" d="M 1882,441 L 2032,441"/>
 <path fill="none" stroke="rgb(179,179,179)" stroke-linejoin="round" d="M 1882,441 L 2032,441"/>
 <path fill="none" stroke="rgb(179,179,179)" stroke-linejoin="round" d="M 2032,10346 L 2032,441"/>
 <path fill="none" stroke="rgb(0,69,134)" stroke-width="80" stroke-linejoin="round" d="M 4187,3552 L 5264,3066 6342,3030 7419,2949 8497,2770 9574,2584 10651,2350 11729,2346 12806,2018 13884,1756 14961,1836 16039,1680 17116,2076 18194,1234"/>
 <path fill="rgb(0,69,134)" stroke="none" d="M 4062,3427 L 4062,3677 4312,3677 4312,3427 4062,3427 Z"/>
 <path fill="none" stroke="rgb(0,69,134)" stroke-linejoin="round" d="M 4062,3427 L 4062,3677 4312,3677 4312,3427 4062,3427 Z"/>
 <path fill="rgb(0,69,134)" stroke="none" d="M 5139,2941 L 5139,3191 5389,3191 5389,2941 5139,2941 Z"/>
 <path fill="none" stroke="rgb(0,69,134)" stroke-linejoin="round" d="M 5139,2941 L 5139,3191 5389,3191 5389,2941 5139,2941 Z"/>
 <path fill="rgb(0,69,134)" stroke="none" d="M 6217,2905 L 6217,3155 6467,3155 6467,2905 6217,2905 Z"/>
 <path fill="none" stroke="rgb(0,69,134)" stroke-linejoin="round" d="M 6217,2905 L 6217,3155 6467,3155 6467,2905 6217,2905 Z"/>
 <path fill="rgb(0,69,134)" stroke="none" d="M 7294,2824 L 7294,3074 7544,3074 7544,2824 7294,2824 Z"/>
 <path fill="none" stroke="rgb(0,69,134)" stroke-linejoin="round" d="M 7294,2824 L 7294,3074 7544,3074 7544,2824 7294,2824 Z"/>
 <path fill="rgb(0,69,134)" stroke="none" d="M 8372,2645 L 8372,2895 8622,2895 8622,2645 8372,2645 Z"/>
 <path fill="none" stroke="rgb(0,69,134)" stroke-linejoin="round" d="M 8372,2645 L 8372,2895 8622,2895 8622,2645 8372,2645 Z"/>
 <path fill="rgb(0,69,134)" stroke="none" d="M 9449,2459 L 9449,2709 9699,2709 9699,2459 9449,2459 Z"/>
 <path fill="none" stroke="rgb(0,69,134)" stroke-linejoin="round" d="M 9449,2459 L 9449,2709 9699,2709 9699,2459 9449,2459 Z"/>
 <path fill="rgb(0,69,134)" stroke="none" d="M 10526,2225 L 10526,2475 10776,2475 10776,2225 10526,2225 Z"/>
 <path fill="none" stroke="rgb(0,69,134)" stroke-linejoin="round" d="M 10526,2225 L 10526,2475 10776,2475 10776,2225 10526,2225 Z"/>
 <path fill="rgb(0,69,134)" stroke="none" d="M 11604,2221 L 11604,2471 11854,2471 11854,2221 11604,2221 Z"/>
 <path fill="none" stroke="rgb(0,69,134)" stroke-linejoin="round" d="M 11604,2221 L 11604,2471 11854,2471 11854,2221 11604,2221 Z"/>
 <path fill="rgb(0,69,134)" stroke="none" d="M 12681,1893 L 12681,2143 12931,2143 12931,1893 12681,1893 Z"/>
 <path fill="none" stroke="rgb(0,69,134)" stroke-linejoin="round" d="M 12681,1893 L 12681,2143 12931,2143 12931,1893 12681,1893 Z"/>
 <path fill="rgb(0,69,134)" stroke="none" d="M 13759,1631 L 13759,1881 14009,1881 14009,1631 13759,1631 Z"/>
 <path fill="none" stroke="rgb(0,69,134)" stroke-linejoin="round" d="M 13759,1631 L 13759,1881 14009,1881 14009,1631 13759,1631 Z"/>
 <path fill="rgb(0,69,134)" stroke="none" d="M 14836,1711 L 14836,1961 15086,1961 15086,1711 14836,1711 Z"/>
 <path fill="none" stroke="rgb(0,69,134)" stroke-linejoin="round" d="M 14836,1711 L 14836,1961 15086,1961 15086,1711 14836,1711 Z"/>
 <path fill="rgb(0,69,134)" stroke="none" d="M 15914,1555 L 15914,1805 16164,1805 16164,1555 15914,1555 Z"/>
 <path fill="none" stroke="rgb(0,69,134)" stroke-linejoin="round" d="M 15914,1555 L 15914,1805 16164,1805 16164,1555 15914,1555 Z"/>
 <path fill="rgb(0,69,134)" stroke="none" d="M 16991,1951 L 16991,2201 17241,2201 17241,1951 16991,1951 Z"/>
 <path fill="none" stroke="rgb(0,69,134)" stroke-linejoin="round" d="M 16991,1951 L 16991,2201 17241,2201 17241,1951 16991,1951 Z"/>
 <path fill="rgb(0,69,134)" stroke="none" d="M 18069,1109 L 18069,1359 18319,1359 18319,1109 18069,1109 Z"/>
 <path fill="none" stroke="rgb(0,69,134)" stroke-linejoin="round" d="M 18069,1109 L 18069,1359 18319,1359 18319,1109 18069,1109 Z"/>
 <text class="TextShape"><tspan class="TextParagraph" font-family="Liberation Sans, sans-serif" font-size="353px" font-weight="400"><tspan class="TextPosition" x="1939" y="10914"><tspan fill="rgb(0,0,0)" stroke="none">2</tspan></tspan></tspan></text>
 <text class="TextShape"><tspan class="TextParagraph" font-family="Liberation Sans, sans-serif" font-size="353px" font-weight="400"><tspan class="TextPosition" x="4094" y="10914"><tspan fill="rgb(0,0,0)" stroke="none">4</tspan></tspan></tspan></text>
 <text class="TextShape"><tspan class="TextParagraph" font-family="Liberation Sans, sans-serif" font-size="353px" font-weight="400"><tspan class="TextPosition" x="6249" y="10914"><tspan fill="rgb(0,0,0)" stroke="none">6</tspan></tspan></tspan></text>
 <text class="TextShape"><tspan class="TextParagraph" font-family="Liberation Sans, sans-serif" font-size="353px" font-weight="400"><tspan class="TextPosition" x="8404" y="10914"><tspan fill="rgb(0,0,0)" stroke="none">8</tspan></tspan></tspan></text>
 <text class="TextShape"><tspan class="TextParagraph" font-family="Liberation Sans, sans-serif" font-size="353px" font-weight="400"><tspan class="TextPosition" x="10467" y="10914"><tspan fill="rgb(0,0,0)" stroke="none">10</tspan></tspan></tspan></text>
 <text class="TextShape"><tspan class="TextParagraph" font-family="Liberation Sans, sans-serif" font-size="353px" font-weight="400"><tspan class="TextPosition" x="12622" y="10914"><tspan fill="rgb(0,0,0)" stroke="none">12</tspan></tspan></tspan></text>
 <text class="TextShape"><tspan class="TextParagraph" font-family="Liberation Sans, sans-serif" font-size="353px" font-weight="400"><tspan class="TextPosition" x="14777" y="10914"><tspan fill="rgb(0,0,0)" stroke="none">14</tspan></tspan></tspan></text>
 <text class="TextShape"><tspan class="TextParagraph" font-family="Liberation Sans, sans-serif" font-size="353px" font-weight="400"><tspan class="TextPosition" x="16932" y="10914"><tspan fill="rgb(0,0,0)" stroke="none">16</tspan></tspan></tspan></text>
 <text class="TextShape"><tspan class="TextParagraph" font-family="Liberation Sans, sans-serif" font-size="353px" font-weight="400"><tspan class="TextPosition" x="19088" y="10914"><tspan fill="rgb(0,0,0)" stroke="none">18</tspan></tspan></tspan></text>
 <text class="TextShape"><tspan class="TextParagraph" font-family="Liberation Sans, sans-serif" font-size="353px" font-weight="400"><tspan class="TextPosition" x="1597" y="10467"><tspan fill="rgb(0,0,0)" stroke="none">0</tspan></tspan></tspan></text>
 <text class="TextShape"><tspan class="TextParagraph" font-family="Liberation Sans, sans-serif" font-size="353px" font-weight="400"><tspan class="TextPosition" x="1412" y="9476"><tspan fill="rgb(0,0,0)" stroke="none">10</tspan></tspan></tspan></text>
 <text class="TextShape"><tspan class="TextParagraph" font-family="Liberation Sans, sans-serif" font-size="353px" font-weight="400"><tspan class="TextPosition" x="1412" y="8486"><tspan fill="rgb(0,0,0)" stroke="none">20</tspan></tspan></tspan></text>
 <text class="TextShape"><tspan class="TextParagraph" font-family="Liberation Sans, sans-serif" font-size="353px" font-weight="400"><tspan class="TextPosition" x="1412" y="7495"><tspan fill="rgb(0,0,0)" stroke="none">30</tspan></tspan></tspan></text>
 <text class="TextShape"><tspan class="TextParagraph" font-family="Liberation Sans, sans-serif" font-size="353px" font-weight="400"><tspan class="TextPosition" x="1412" y="6504"><tspan fill="rgb(0,0,0)" stroke="none">40</tspan></tspan></tspan></text>
 <text class="TextShape"><tspan class="TextParagraph" font-family="Liberation Sans, sans-serif" font-size="353px" font-weight="400"><tspan class="TextPosition" x="1412" y="5514"><tspan fill="rgb(0,0,0)" stroke="none">50</tspan></tspan></tspan></text>
 <text class="TextShape"><tspan class="TextParagraph" font-family="Liberation Sans, sans-serif" font-size="353px" font-weight="400"><tspan class="TextPosition" x="1412" y="4523"><tspan fill="rgb(0,0,0)" stroke="none">60</tspan></tspan></tspan></text>
 <text class="TextShape"><tspan class="TextParagraph" font-family="Liberation Sans, sans-serif" font-size="353px" font-weight="400"><tspan class="TextPosition" x="1412" y="3533"><tspan fill="rgb(0,0,0)" stroke="none">70</tspan></tspan></tspan></text>
 <text class="TextShape"><tspan class="TextParagraph" font-family="Liberation Sans, sans-serif" font-size="353px" font-weight="400"><tspan class="TextPosition" x="1412" y="2542"><tspan fill="rgb(0,0,0)" stroke="none">80</tspan></tspan></tspan></text>
 <text class="TextShape"><tspan class="TextParagraph" font-family="Liberation Sans, sans-serif" font-size="353px" font-weight="400"><tspan class="TextPosition" x="1412" y="1552"><tspan fill="rgb(0,0,0)" stroke="none">90</tspan></tspan></tspan></text>
 <text class="TextShape"><tspan class="TextParagraph" font-family="Liberation Sans, sans-serif" font-size="353px" font-weight="400"><tspan class="TextPosition" x="1226" y="561"><tspan fill="rgb(0,0,0)" stroke="none">100</tspan></tspan></tspan></text>
 <text class="TextShape"><tspan class="TextParagraph" font-family="Liberation Sans, sans-serif" font-size="318px" font-weight="400"><tspan class="TextPosition" x="8980" y="11625"><tspan fill="rgb(0,0,0)" stroke="none">Nombre de candidats</tspan></tspan></tspan></text>
 <text class="TextShape" transform="rotate(-90 837 7206)"><tspan class="TextParagraph" font-family="Liberation Sans, sans-serif" font-size="318px" font-weight="400"><tspan class="TextPosition" x="837" y="7206"><tspan fill="rgb(0,0,0)" stroke="none">Nombre de messages</tspan></tspan></tspan></text>
</svg>